<svg xmlns="http://www.w3.org/2000/svg" viewBox="0 0 512 512" role="img" aria-labelledby="title desc">
    <title id="title">Abbey AI chat icon</title>
    <desc id="desc">A friendly robot head with a speech bubble.</desc>
    <rect width="512" height="512" fill="#ffffff"/>
    <g fill="none" stroke-linecap="round" stroke-linejoin="round">
        <path d="M129 217h-20c-28 0-50 22-50 50v40c0 28 22 50 50 50h20" stroke="#283196" stroke-width="19"/>
        <path d="M383 217h20c28 0 50 22 50 50v40c0 28-22 50-50 50h-20" stroke="#283196" stroke-width="19"/>
        <path d="M151 189h210c31 0 57 25 57 57v106c0 31-26 57-57 57H151c-31 0-57-26-57-57V246c0-32 26-57 57-57Z" stroke="#283196" stroke-width="20"/>
        <path d="M204 335c27 35 77 35 104 0" stroke="#283196" stroke-width="18"/>
        <circle cx="194" cy="277" r="26" stroke="#283196" stroke-width="18"/>
        <circle cx="318" cy="277" r="26" stroke="#283196" stroke-width="18"/>
        <path d="M156 188v-60" stroke="#283196" stroke-width="18"/>
        <circle cx="156" cy="98" r="18" stroke="#3f82d7" stroke-width="18"/>
        <path d="M232 441h48" stroke="#3f82d7" stroke-width="18"/>
        <path d="M360 391v50h-80" stroke="#283196" stroke-width="18"/>
        <path d="M302 70h80c48 0 87 35 87 78s-39 78-87 78h-25l-48 40 11-48c-31-13-52-40-52-70 0-43 39-78 87-78" stroke="#3f82d7" stroke-width="18"/>
        <path d="M338 130h82" stroke="#3f82d7" stroke-width="15"/>
        <path d="M338 168h82" stroke="#3f82d7" stroke-width="15"/>
    </g>
</svg>
